<svg width="256" height="256" viewBox="0 0 256 256" xmlns="http://www.w3.org/2000/svg">
  <!-- Browser window frame -->
  <rect x="32" y="48" width="192" height="144" rx="8" ry="8" fill="#f8f9fa" stroke="#dee2e6" stroke-width="2"/>
  
  <!-- Browser header/title bar -->
  <rect x="32" y="48" width="192" height="32" rx="8" ry="8" fill="#e9ecef"/>
  <rect x="32" y="64" width="192" height="8" fill="#e9ecef"/>
  
  <!-- Browser controls (close, minimize, maximize) -->
  <circle cx="48" cy="64" r="4" fill="#dc3545"/>
  <circle cx="64" cy="64" r="4" fill="#ffc107"/>
  <circle cx="80" cy="64" r="4" fill="#28a745"/>
  
  <!-- Address bar -->
  <rect x="104" y="56" width="96" height="16" rx="8" ry="8" fill="#ffffff" stroke="#ced4da" stroke-width="1"/>
  
  <!-- Browser details content area -->
  <g transform="translate(48, 96)">
    <!-- Browser icon -->
    <circle cx="24" cy="24" r="16" fill="#6c757d" opacity="0.8"/>
    <circle cx="24" cy="24" r="12" fill="none" stroke="#ffffff" stroke-width="2"/>
    <circle cx="24" cy="24" r="6" fill="#ffffff"/>
    
    <!-- Info lines representing browser details -->
    <rect x="52" y="16" width="80" height="4" rx="2" fill="#6c757d" opacity="0.6"/>
    <rect x="52" y="26" width="64" height="4" rx="2" fill="#6c757d" opacity="0.6"/>
    <rect x="52" y="36" width="72" height="4" rx="2" fill="#6c757d" opacity="0.6"/>
    
    <!-- Additional detail sections -->
    <rect x="8" y="56" width="48" height="4" rx="2" fill="#6c757d" opacity="0.4"/>
    <rect x="8" y="66" width="56" height="4" rx="2" fill="#6c757d" opacity="0.4"/>
    <rect x="8" y="76" width="40" height="4" rx="2" fill="#6c757d" opacity="0.4"/>
    
    <rect x="72" y="56" width="52" height="4" rx="2" fill="#6c757d" opacity="0.4"/>
    <rect x="72" y="66" width="44" height="4" rx="2" fill="#6c757d" opacity="0.4"/>
    <rect x="72" y="76" width="48" height="4" rx="2" fill="#6c757d" opacity="0.4"/>
  </g>
  
  <!-- Subtle data visualization elements -->
  <g transform="translate(64, 208)">
    <rect x="0" y="0" width="12" height="8" fill="#007bff" opacity="0.3"/>
    <rect x="16" y="-4" width="12" height="12" fill="#007bff" opacity="0.4"/>
    <rect x="32" y="-8" width="12" height="16" fill="#007bff" opacity="0.5"/>
    <rect x="48" y="-2" width="12" height="10" fill="#007bff" opacity="0.4"/>
    <rect x="64" y="-6" width="12" height="14" fill="#007bff" opacity="0.5"/>
    <rect x="80" y="-4" width="12" height="12" fill="#007bff" opacity="0.4"/>
    <rect x="96" y="0" width="12" height="8" fill="#007bff" opacity="0.3"/>
    <rect x="112" y="-10" width="12" height="18" fill="#007bff" opacity="0.6"/>
  </g>
</svg>
