<svg width="200" height="200" viewBox="0 0 200 200" xmlns="http://www.w3.org/2000/svg">
  <!-- Background with gamebox styling -->
  <defs>
    <linearGradient id="backgroundGrad" x1="0%" y1="0%" x2="100%" y2="100%">
      <stop offset="0%" style="stop-color:#e8f4fd;stop-opacity:1" />
      <stop offset="100%" style="stop-color:#f0f8ff;stop-opacity:1" />
    </linearGradient>
    
    <linearGradient id="frameGrad" x1="0%" y1="0%" x2="100%" y2="100%">
      <stop offset="0%" style="stop-color:#b3d9ff;stop-opacity:1" />
      <stop offset="50%" style="stop-color:#87ceeb;stop-opacity:1" />
      <stop offset="100%" style="stop-color:#b3d9ff;stop-opacity:1" />
    </linearGradient>
    
    <linearGradient id="coreGrad" x1="0%" y1="0%" x2="100%" y2="100%">
      <stop offset="0%" style="stop-color:#ff6b9d;stop-opacity:1" />
      <stop offset="100%" style="stop-color:#ffd93d;stop-opacity:1" />
    </linearGradient>
    
    <linearGradient id="componentGrad" x1="0%" y1="0%" x2="100%" y2="100%">
      <stop offset="0%" style="stop-color:#74b9ff;stop-opacity:1" />
      <stop offset="100%" style="stop-color:#a29bfe;stop-opacity:1" />
    </linearGradient>
    
    <filter id="glow">
      <feGaussianBlur stdDeviation="3" result="coloredBlur"/>
      <feMerge> 
        <feMergeNode in="coloredBlur"/>
        <feMergeNode in="SourceGraphic"/>
      </feMerge>
    </filter>
  </defs>
  
  <!-- Gamebox frame -->
  <rect x="0" y="0" width="200" height="200" rx="8" fill="url(#backgroundGrad)" stroke="url(#frameGrad)" stroke-width="4"/>
  
  <!-- Corner decorations -->
  <rect x="10" y="10" width="12" height="3" fill="#00e6cc" opacity="0.9"/>
  <rect x="10" y="10" width="3" height="12" fill="#00e6cc" opacity="0.9"/>
  <rect x="178" y="10" width="12" height="3" fill="#00e6cc" opacity="0.9"/>
  <rect x="187" y="10" width="3" height="12" fill="#00e6cc" opacity="0.9"/>
  <rect x="10" y="187" width="12" height="3" fill="#00e6cc" opacity="0.9"/>
  <rect x="10" y="178" width="3" height="12" fill="#00e6cc" opacity="0.9"/>
  <rect x="178" y="187" width="12" height="3" fill="#00e6cc" opacity="0.9"/>
  <rect x="187" y="178" width="3" height="12" fill="#00e6cc" opacity="0.9"/>
  
  <!-- Central core component -->
  <circle cx="100" cy="100" r="20" fill="url(#coreGrad)" filter="url(#glow)" opacity="0.95"/>
  <circle cx="100" cy="100" r="15" fill="none" stroke="#666666" stroke-width="2" opacity="0.7"/>
  
  <!-- Framework components arranged around the core -->
  <!-- Top component -->
  <rect x="85" y="40" width="30" height="20" rx="4" fill="url(#componentGrad)" opacity="0.9"/>
  <rect x="90" y="45" width="20" height="10" rx="2" fill="#ffffff" opacity="0.6"/>
  
  <!-- Right component -->
  <rect x="140" y="85" width="20" height="30" rx="4" fill="url(#componentGrad)" opacity="0.9"/>
  <rect x="145" y="90" width="10" height="20" rx="2" fill="#ffffff" opacity="0.6"/>
  
  <!-- Bottom component -->
  <rect x="85" y="140" width="30" height="20" rx="4" fill="url(#componentGrad)" opacity="0.9"/>
  <rect x="90" y="145" width="20" height="10" rx="2" fill="#ffffff" opacity="0.6"/>
  
  <!-- Left component -->
  <rect x="40" y="85" width="20" height="30" rx="4" fill="url(#componentGrad)" opacity="0.9"/>
  <rect x="45" y="90" width="10" height="20" rx="2" fill="#ffffff" opacity="0.6"/>
  
  <!-- Corner modules -->
  <circle cx="65" cy="65" r="8" fill="#55efc4" opacity="0.8"/>
  <circle cx="135" cy="65" r="8" fill="#55efc4" opacity="0.8"/>
  <circle cx="65" cy="135" r="8" fill="#55efc4" opacity="0.8"/>
  <circle cx="135" cy="135" r="8" fill="#55efc4" opacity="0.8"/>
  
  <!-- Connection lines showing composite structure -->
  <line x1="100" y1="80" x2="100" y2="60" stroke="#00e6cc" stroke-width="2" opacity="0.8"/>
  <line x1="120" y1="100" x2="140" y2="100" stroke="#00e6cc" stroke-width="2" opacity="0.8"/>
  <line x1="100" y1="120" x2="100" y2="140" stroke="#00e6cc" stroke-width="2" opacity="0.8"/>
  <line x1="80" y1="100" x2="60" y2="100" stroke="#00e6cc" stroke-width="2" opacity="0.8"/>
  
  <!-- Diagonal connections to corner modules -->
  <line x1="85" y1="85" x2="73" y2="73" stroke="#55efc4" stroke-width="1.5" opacity="0.7"/>
  <line x1="115" y1="85" x2="127" y2="73" stroke="#55efc4" stroke-width="1.5" opacity="0.7"/>
  <line x1="85" y1="115" x2="73" y2="127" stroke="#55efc4" stroke-width="1.5" opacity="0.7"/>
  <line x1="115" y1="115" x2="127" y2="127" stroke="#55efc4" stroke-width="1.5" opacity="0.7"/>
  
  <!-- Data flow indicators -->
  <circle cx="100" cy="70" r="2" fill="#ffb347" opacity="0.9">
    <animate attributeName="opacity" values="0.9;0.5;0.9" dur="2s" repeatCount="indefinite"/>
  </circle>
  <circle cx="130" cy="100" r="2" fill="#ffb347" opacity="0.9">
    <animate attributeName="opacity" values="0.5;0.9;0.5" dur="2s" repeatCount="indefinite"/>
  </circle>
  <circle cx="100" cy="130" r="2" fill="#ffb347" opacity="0.9">
    <animate attributeName="opacity" values="0.9;0.5;0.9" dur="2s" repeatCount="indefinite"/>
  </circle>
  <circle cx="70" cy="100" r="2" fill="#ffb347" opacity="0.9">
    <animate attributeName="opacity" values="0.5;0.9;0.5" dur="2s" repeatCount="indefinite"/>
  </circle>
</svg>
