<svg width="400" height="400" viewBox="0 0 400 400" xmlns="http://www.w3.org/2000/svg">
  <!-- Background -->
  <rect width="400" height="400" fill="#f8f8f8"/>
  
  <!-- Grid lines -->
  <defs>
    <pattern id="grid" width="20" height="20" patternUnits="userSpaceOnUse">
      <path d="M 20 0 L 0 0 0 20" fill="none" stroke="#e0e0e0" stroke-width="0.5"/>
    </pattern>
  </defs>
  <rect width="400" height="400" fill="url(#grid)"/>
  
  <!-- Live cells (black squares) forming classic Game of Life patterns -->
  
  <!-- Glider in top-left -->
  <rect x="40" y="40" width="20" height="20" fill="#2c3e50"/>
  <rect x="60" y="60" width="20" height="20" fill="#2c3e50"/>
  <rect x="80" y="40" width="20" height="20" fill="#2c3e50"/>
  <rect x="80" y="60" width="20" height="20" fill="#2c3e50"/>
  <rect x="80" y="80" width="20" height="20" fill="#2c3e50"/>
  
  <!-- Blinker oscillator -->
  <rect x="160" y="100" width="20" height="20" fill="#e74c3c"/>
  <rect x="180" y="100" width="20" height="20" fill="#e74c3c"/>
  <rect x="200" y="100" width="20" height="20" fill="#e74c3c"/>
  
  <!-- Block (still life) -->
  <rect x="280" y="80" width="20" height="20" fill="#27ae60"/>
  <rect x="300" y="80" width="20" height="20" fill="#27ae60"/>
  <rect x="280" y="100" width="20" height="20" fill="#27ae60"/>
  <rect x="300" y="100" width="20" height="20" fill="#27ae60"/>
  
  <!-- Beacon oscillator -->
  <rect x="60" y="180" width="20" height="20" fill="#9b59b6"/>
  <rect x="80" y="180" width="20" height="20" fill="#9b59b6"/>
  <rect x="60" y="200" width="20" height="20" fill="#9b59b6"/>
  <rect x="120" y="220" width="20" height="20" fill="#9b59b6"/>
  <rect x="100" y="240" width="20" height="20" fill="#9b59b6"/>
  <rect x="120" y="240" width="20" height="20" fill="#9b59b6"/>
  
  <!-- Toad oscillator -->
  <rect x="240" y="200" width="20" height="20" fill="#f39c12"/>
  <rect x="260" y="200" width="20" height="20" fill="#f39c12"/>
  <rect x="280" y="200" width="20" height="20" fill="#f39c12"/>
  <rect x="220" y="220" width="20" height="20" fill="#f39c12"/>
  <rect x="240" y="220" width="20" height="20" fill="#f39c12"/>
  <rect x="260" y="220" width="20" height="20" fill="#f39c12"/>
  
  <!-- R-pentomino (creates complex evolution) -->
  <rect x="140" y="280" width="20" height="20" fill="#34495e"/>
  <rect x="160" y="280" width="20" height="20" fill="#34495e"/>
  <rect x="120" y="300" width="20" height="20" fill="#34495e"/>
  <rect x="140" y="300" width="20" height="20" fill="#34495e"/>
  <rect x="140" y="320" width="20" height="20" fill="#34495e"/>
  
  <!-- Pentadecathlon oscillator (partial) -->
  <rect x="320" y="260" width="20" height="20" fill="#16a085"/>
  <rect x="320" y="280" width="20" height="20" fill="#16a085"/>
  <rect x="300" y="300" width="20" height="20" fill="#16a085"/>
  <rect x="340" y="300" width="20" height="20" fill="#16a085"/>
  <rect x="320" y="320" width="20" height="20" fill="#16a085"/>
  <rect x="320" y="340" width="20" height="20" fill="#16a085"/>
  
  <!-- Additional scattered live cells -->
  <rect x="20" y="320" width="20" height="20" fill="#8e44ad"/>
  <rect x="360" y="40" width="20" height="20" fill="#d35400"/>
  <rect x="40" y="360" width="20" height="20" fill="#c0392b"/>
  <rect x="360" y="360" width="20" height="20" fill="#2980b9"/>
</svg>
