<svg width="200" height="200" viewBox="0 0 200 200" xmlns="http://www.w3.org/2000/svg">
  <!-- Background -->
  <rect width="200" height="200" fill="#f0f4f8" rx="12"/>
  
  <!-- Map terrain layers -->
  <!-- Land masses -->
  <path d="M30 50 Q80 40 120 55 T170 60 L170 150 Q140 145 100 150 Q60 155 30 140 Z" fill="#e2e8f0"/>
  <path d="M40 70 Q90 65 130 75 T160 80 L160 130 Q130 125 90 130 Q50 135 40 120 Z" fill="#cbd5e0"/>
  
  <!-- Water bodies -->
  <ellipse cx="70" cy="90" rx="18" ry="12" fill="#3182ce"/>
  <ellipse cx="130" cy="110" rx="15" ry="10" fill="#3182ce"/>
  
  <!-- Coastline details -->
  <path d="M30 100 Q50 95 70 100 Q90 105 110 100 Q130 95 150 100" 
        stroke="#2b6cb0" stroke-width="2" fill="none"/>
  
  <!-- Geohash grid system -->
  <!-- Primary grid (level 1) -->
  <g stroke="#2d3748" stroke-width="2" fill="none" opacity="0.7">
    <line x1="100" y1="20" x2="100" y2="180"/>
    <line x1="20" y1="100" x2="180" y2="100"/>
  </g>
  
  <!-- Secondary grid (level 2) -->
  <g stroke="#4a5568" stroke-width="1.5" fill="none" opacity="0.6">
    <line x1="60" y1="20" x2="60" y2="100"/>
    <line x1="140" y1="20" x2="140" y2="100"/>
    <line x1="60" y1="100" x2="60" y2="180"/>
    <line x1="140" y1="100" x2="140" y2="180"/>
    <line x1="20" y1="60" x2="100" y2="60"/>
    <line x1="100" y1="60" x2="180" y2="60"/>
    <line x1="20" y1="140" x2="100" y2="140"/>
    <line x1="100" y1="140" x2="180" y2="140"/>
  </g>
  
  <!-- Tertiary grid (level 3) -->
  <g stroke="#718096" stroke-width="1" fill="none" opacity="0.4">
    <line x1="80" y1="20" x2="80" y2="60"/>
    <line x1="120" y1="20" x2="120" y2="60"/>
    <line x1="20" y1="40" x2="60" y2="40"/>
    <line x1="20" y1="80" x2="60" y2="80"/>
    <line x1="100" y1="40" x2="140" y2="40"/>
    <line x1="100" y1="80" x2="140" y2="80"/>
  </g>
  
  <!-- Active geohash cell highlight -->
  <rect x="60" y="60" width="40" height="40" fill="#ed8936" opacity="0.4" stroke="#ed8936" stroke-width="2"/>
  
  <!-- Location markers -->
  <circle cx="80" cy="80" r="3" fill="#c53030"/>
  <circle cx="80" cy="80" r="1.5" fill="#fff"/>
  
  <!-- Additional smaller markers -->
  <circle cx="130" cy="45" r="2" fill="#38a169"/>
  <circle cx="45" cy="125" r="2" fill="#3182ce"/>
  
  <!-- Border frame -->
  <rect x="20" y="20" width="160" height="160" fill="none" stroke="#a0aec0" stroke-width="1" rx="6"/>
</svg>