<?xml version="1.0" encoding="UTF-8"?>
<svg width="200" height="200" viewBox="0 0 200 200" xmlns="http://www.w3.org/2000/svg">
  <!-- Background square -->
  <rect width="200" height="200" fill="#f8f9fa" stroke="#e9ecef" stroke-width="2"/>
  
  <!-- Map border -->
  <rect x="10" y="15" width="180" height="170" fill="#e3f2fd" stroke="#495057" stroke-width="2" rx="5"/>
  
  <!-- North America -->
  <path d="M25,55 L50,40 L65,60 L50,80 L30,95 L25,75 Z" fill="#495057"/>
  
  <!-- South America -->
  <path d="M45,110 L65,95 L80,135 L65,170 L50,175 L45,145 Z" fill="#495057"/>
  
  <!-- Europe -->
  <path d="M85,55 L110,40 L125,55 L110,75 L85,70 Z" fill="#495057"/>
  
  <!-- Africa -->
  <path d="M100,75 L125,70 L140,110 L125,160 L110,170 L100,135 Z" fill="#495057"/>
  
  <!-- Asia -->
  <path d="M130,40 L170,25 L185,50 L175,75 L155,90 L135,75 L130,55 Z" fill="#495057"/>
  
  <!-- Australia -->
  <path d="M150,145 L180,135 L190,155 L175,165 L150,160 Z" fill="#495057"/>
  
  <!-- Location pin 1 (North America) -->
  <g transform="translate(42, 80)">
    <path d="M0,0 L-4,-12 A6,6 0 0,1 4,-12 Z" fill="#dc3545"/>
    <circle cx="0" cy="-8" r="4" fill="#ffffff"/>
    <circle cx="0" cy="-8" r="2" fill="#dc3545"/>
  </g>
  
  <!-- Location pin 2 (Asia) -->
  <g transform="translate(155, 70)">
    <path d="M0,0 L-3,-9 A4.5,4.5 0 0,1 3,-9 Z" fill="#007bff"/>
    <circle cx="0" cy="-6" r="3" fill="#ffffff"/>
    <circle cx="0" cy="-6" r="1.5" fill="#007bff"/>
  </g>
  
  <!-- Location pin 3 (Australia) -->
  <g transform="translate(170, 165)">
    <path d="M0,0 L-3,-9 A4.5,4.5 0 0,1 3,-9 Z" fill="#28a745"/>
    <circle cx="0" cy="-6" r="3" fill="#ffffff"/>
    <circle cx="0" cy="-6" r="1.5" fill="#28a745"/>
  </g>
  
  <!-- Network connection lines (subtle) -->
  <line x1="42" y1="72" x2="155" y2="64" stroke="#6c757d" stroke-width="1" opacity="0.4" stroke-dasharray="2,2"/>
  <line x1="155" y1="64" x2="170" y2="159" stroke="#6c757d" stroke-width="1" opacity="0.4" stroke-dasharray="2,2"/>
  <line x1="42" y1="72" x2="170" y2="159" stroke="#6c757d" stroke-width="1" opacity="0.4" stroke-dasharray="2,2"/>
  
  <!-- IP address indicator (subtle binary pattern) -->
  <g transform="translate(20, 20)" opacity="0.3">
    <rect x="0" y="0" width="3" height="3" fill="#495057"/>
    <rect x="5" y="0" width="3" height="3" fill="#495057"/>
    <rect x="0" y="5" width="3" height="3" fill="#495057"/>
    <rect x="10" y="5" width="3" height="3" fill="#495057"/>
  </g>
  
</svg>
