<svg xmlns="http://www.w3.org/2000/svg" viewBox="0 0 200 200">
  <defs>
    <linearGradient id="orangeGradient" x1="0%" y1="0%" x2="100%" y2="100%">
      <stop offset="0%" style="stop-color:#FF6600;stop-opacity:1" />
      <stop offset="100%" style="stop-color:#E95420;stop-opacity:1" />
    </linearGradient>
    <linearGradient id="purpleGradient" x1="0%" y1="0%" x2="100%" y2="100%">
      <stop offset="0%" style="stop-color:#77216F;stop-opacity:1" />
      <stop offset="100%" style="stop-color:#5E2750;stop-opacity:1" />
    </linearGradient>
  </defs>
  
  <!-- Background circle -->
  <circle cx="100" cy="100" r="95" fill="#F7F7F7" stroke="#E5E5E5" stroke-width="2"/>
  
  <!-- Main gear (generator) -->
  <g transform="translate(100,100)">
    <!-- Outer gear teeth -->
    <g fill="url(#orangeGradient)">
      <polygon points="0,-50 8,-45 8,-35 0,-30 -8,-35 -8,-45" transform="rotate(0)"/>
      <polygon points="0,-50 8,-45 8,-35 0,-30 -8,-35 -8,-45" transform="rotate(45)"/>
      <polygon points="0,-50 8,-45 8,-35 0,-30 -8,-35 -8,-45" transform="rotate(90)"/>
      <polygon points="0,-50 8,-45 8,-35 0,-30 -8,-35 -8,-45" transform="rotate(135)"/>
      <polygon points="0,-50 8,-45 8,-35 0,-30 -8,-35 -8,-45" transform="rotate(180)"/>
      <polygon points="0,-50 8,-45 8,-35 0,-30 -8,-35 -8,-45" transform="rotate(225)"/>
      <polygon points="0,-50 8,-45 8,-35 0,-30 -8,-35 -8,-45" transform="rotate(270)"/>
      <polygon points="0,-50 8,-45 8,-35 0,-30 -8,-35 -8,-45" transform="rotate(315)"/>
    </g>
    
    <!-- Main gear body -->
    <circle r="30" fill="url(#orangeGradient)" stroke="#CC4400" stroke-width="2"/>
    
    <!-- Inner gear holes (Ubuntu style) -->
    <circle cx="0" cy="-15" r="4" fill="#FFFFFF"/>
    <circle cx="13" cy="7.5" r="4" fill="#FFFFFF"/>
    <circle cx="-13" cy="7.5" r="4" fill="#FFFFFF"/>
  </g>
  
  <!-- Smaller gear 1 (top right) -->
  <g transform="translate(150,60)">
    <g fill="url(#purpleGradient)">
      <polygon points="0,-25 4,-22 4,-18 0,-15 -4,-18 -4,-22" transform="rotate(0)"/>
      <polygon points="0,-25 4,-22 4,-18 0,-15 -4,-18 -4,-22" transform="rotate(60)"/>
      <polygon points="0,-25 4,-22 4,-18 0,-15 -4,-18 -4,-22" transform="rotate(120)"/>
      <polygon points="0,-25 4,-22 4,-18 0,-15 -4,-18 -4,-22" transform="rotate(180)"/>
      <polygon points="0,-25 4,-22 4,-18 0,-15 -4,-18 -4,-22" transform="rotate(240)"/>
      <polygon points="0,-25 4,-22 4,-18 0,-15 -4,-18 -4,-22" transform="rotate(300)"/>
    </g>
    <circle r="15" fill="url(#purpleGradient)" stroke="#5E2750" stroke-width="1"/>
    <circle r="6" fill="#FFFFFF"/>
  </g>
  
  <!-- Smaller gear 2 (bottom left) -->
  <g transform="translate(50,140)">
    <g fill="url(#purpleGradient)">
      <polygon points="0,-25 4,-22 4,-18 0,-15 -4,-18 -4,-22" transform="rotate(0)"/>
      <polygon points="0,-25 4,-22 4,-18 0,-15 -4,-18 -4,-22" transform="rotate(60)"/>
      <polygon points="0,-25 4,-22 4,-18 0,-15 -4,-18 -4,-22" transform="rotate(120)"/>
      <polygon points="0,-25 4,-22 4,-18 0,-15 -4,-18 -4,-22" transform="rotate(180)"/>
      <polygon points="0,-25 4,-22 4,-18 0,-15 -4,-18 -4,-22" transform="rotate(240)"/>
      <polygon points="0,-25 4,-22 4,-18 0,-15 -4,-18 -4,-22" transform="rotate(300)"/>
    </g>
    <circle r="15" fill="url(#purpleGradient)" stroke="#5E2750" stroke-width="1"/>
    <circle r="6" fill="#FFFFFF"/>
  </g>
  
  <!-- Ubuntu logo inspired elements (three circles) -->
  <g transform="translate(100,100)">
    <!-- Top circle -->
    <circle cx="0" cy="-70" r="8" fill="#E95420"/>
    <circle cx="0" cy="-70" r="4" fill="#FFFFFF"/>
    
    <!-- Bottom right circle -->
    <circle cx="60" cy="35" r="8" fill="#E95420"/>
    <circle cx="60" cy="35" r="4" fill="#FFFFFF"/>
    
    <!-- Bottom left circle -->
    <circle cx="-60" cy="35" r="8" fill="#E95420"/>
    <circle cx="-60" cy="35" r="4" fill="#FFFFFF"/>
  </g>
  
  <!-- Connection lines (suggesting data flow) -->
  <line x1="100" y1="30" x2="100" y2="70" stroke="#CC4400" stroke-width="2" stroke-dasharray="5,5"/>
  <line x1="130" y1="100" x2="140" y2="75" stroke="#CC4400" stroke-width="2" stroke-dasharray="5,5"/>
  <line x1="70" y1="100" x2="60" y2="125" stroke="#CC4400" stroke-width="2" stroke-dasharray="5,5"/>
</svg>