<svg xmlns="http://www.w3.org/2000/svg" viewBox="0 0 200 200">
  <defs>
    <linearGradient id="orangeGradient" x1="0%" y1="0%" x2="100%" y2="100%">
      <stop offset="0%" style="stop-color:#FF7F00;stop-opacity:1" />
      <stop offset="100%" style="stop-color:#E95420;stop-opacity:1" />
    </linearGradient>
    <linearGradient id="purpleGradient" x1="0%" y1="0%" x2="100%" y2="100%">
      <stop offset="0%" style="stop-color:#77216F;stop-opacity:1" />
      <stop offset="100%" style="stop-color:#2C001E;stop-opacity:1" />
    </linearGradient>
    <filter id="glow">
      <feGaussianBlur stdDeviation="2" result="coloredBlur"/>
      <feMerge> 
        <feMergeNode in="coloredBlur"/>
        <feMergeNode in="SourceGraphic"/>
      </feMerge>
    </filter>
  </defs>
  
  <!-- Animal body (main circle) -->
  <circle cx="100" cy="110" r="60" fill="url(#orangeGradient)" stroke="#333" stroke-width="3"/>
  
  <!-- Animal head -->
  <ellipse cx="100" cy="60" rx="35" ry="30" fill="url(#orangeGradient)" stroke="#333" stroke-width="2"/>
  
  <!-- Ears -->
  <ellipse cx="80" cy="45" rx="8" ry="15" fill="url(#orangeGradient)" stroke="#333" stroke-width="1"/>
  <ellipse cx="120" cy="45" rx="8" ry="15" fill="url(#orangeGradient)" stroke="#333" stroke-width="1"/>
  
  <!-- Eyes -->
  <circle cx="90" cy="55" r="6" fill="#000"/>
  <circle cx="110" cy="55" r="6" fill="#000"/>
  <circle cx="92" cy="53" r="2" fill="#fff"/>
  <circle cx="112" cy="53" r="2" fill="#fff"/>
  
  <!-- Nose -->
  <ellipse cx="100" cy="70" rx="4" ry="3" fill="#333"/>
  
  <!-- Mouth -->
  <path d="M 95 75 Q 100 80 105 75" stroke="#333" stroke-width="2" fill="none"/>
  
  <!-- Generator panel on belly -->
  <g transform="translate(100, 110)">
    <!-- Screen/display -->
    <rect x="-20" y="-10" width="40" height="15" rx="3" fill="#000" stroke="#555" stroke-width="1"/>
    <rect x="-18" y="-8" width="36" height="11" rx="2" fill="#1a1a1a"/>
    
    <!-- Control buttons -->
    <circle cx="-10" cy="8" r="3" fill="#77D142"/>
    <circle cx="0" cy="8" r="3" fill="#FFD700"/>
    <circle cx="10" cy="8" r="3" fill="#E95420"/>
  </g>
  
  <!-- Legs -->
  <ellipse cx="75" cy="155" rx="8" ry="15" fill="url(#orangeGradient)" stroke="#333" stroke-width="2"/>
  <ellipse cx="100" cy="160" rx="8" ry="15" fill="url(#orangeGradient)" stroke="#333" stroke-width="2"/>
  <ellipse cx="125" cy="155" rx="8" ry="15" fill="url(#orangeGradient)" stroke="#333" stroke-width="2"/>
  
  <!-- Paws -->
  <ellipse cx="75" cy="170" rx="10" ry="6" fill="#333"/>
  <ellipse cx="100" cy="175" rx="10" ry="6" fill="#333"/>
  <ellipse cx="125" cy="170" rx="10" ry="6" fill="#333"/>
  
  <!-- Tail -->
  <path d="M 160 120 Q 180 110 185 90 Q 190 70 180 50" stroke="url(#orangeGradient)" stroke-width="8" fill="none"/>
  <circle cx="180" cy="50" r="6" fill="url(#orangeGradient)"/>
  
  <!-- Input elements floating around animal -->
  <g opacity="0.7">
    <circle cx="50" cy="80" r="3" fill="#FFD700"/>
    <circle cx="150" cy="80" r="3" fill="#77D142"/>
    <circle cx="40" cy="70" r="2" fill="#FFD700"/>
    <circle cx="160" cy="70" r="2" fill="#77D142"/>
    
    <!-- Flow lines to animal -->
    <path d="M 50 80 Q 70 90 80 100" stroke="#FFD700" stroke-width="2" fill="none" opacity="0.6"/>
    <path d="M 150 80 Q 130 90 120 100" stroke="#77D142" stroke-width="2" fill="none" opacity="0.6"/>
  </g>
  
  <!-- Output elements from animal's mouth -->
  <g transform="translate(100, 85)">
    <!-- Generated releases coming from mouth -->
    <circle cx="-15" cy="0" r="3" fill="#E95420" filter="url(#glow)"/>
    <circle cx="0" cy="-5" r="3" fill="#E95420" filter="url(#glow)"/>
    <circle cx="15" cy="0" r="3" fill="#E95420" filter="url(#glow)"/>
  </g>
  
  <!-- Ubuntu-style orbital circles around the animal -->
  <g opacity="0.2">
    <circle cx="100" cy="110" r="90" fill="none" stroke="#E95420" stroke-width="1" stroke-dasharray="8,8"/>
    
    <!-- Orbital elements -->
    <circle cx="100" cy="20" r="4" fill="#E95420"/>
    <circle cx="190" cy="110" r="4" fill="#E95420"/>
    <circle cx="100" cy="200" r="4" fill="#E95420"/>
    <circle cx="10" cy="110" r="4" fill="#E95420"/>
  </g>
  
  <!-- Whiskers -->
  <g opacity="0.6" stroke="#333" stroke-width="1">
    <line x1="65" y1="65" x2="50" y2="60"/>
    <line x1="65" y1="70" x2="45" y2="70"/>
    <line x1="135" y1="65" x2="150" y2="60"/>
    <line x1="135" y1="70" x2="155" y2="70"/>
  </g>
</svg>